<svg width="22" height="15" fill="none" xmlns="http://www.w3.org/2000/svg"><path d="M21.879 9.477l-1.027-1.51c.227-.196.44-.41.636-.638a.67.67 0 00.05-.08.72.72 0 00.052-.784v-.02a12.621 12.621 0 00-4.47-4.68A12.047 12.047 0 0010.999 0C8.845.023 6.734.63 4.875 1.758A12.62 12.62 0 00.399 6.436a.755.755 0 00-.067.548.73.73 0 00.321.44h.02c.133.139.301.303.52.494L.133 9.479a.76.76 0 00.165 1.027.622.622 0 00.4.149.693.693 0 00.336-.088.722.722 0 00.256-.242l1.04-1.496c.541.395 1.11.747 1.703 1.054l-.995 1.978a.724.724 0 00.09.818.728.728 0 00.545.243.724.724 0 00.369-.109.76.76 0 00.267-.283l1.018-2.057c.602.262 1.224.473 1.859.633l-.604 2.353a.779.779 0 00.074.557.733.733 0 00.425.349.711.711 0 00.616-.13.755.755 0 00.258-.384l.636-2.452c.57.097 1.147.155 1.726.172v2.695c0 .195.074.382.207.52a.696.696 0 00.502.215.696.696 0 00.5-.215.749.749 0 00.208-.52V11.57a17.521 17.521 0 001.726-.172l.636 2.452a.759.759 0 00.259.384.714.714 0 00.618.13.72.72 0 00.427-.348.765.765 0 00.069-.558l-.617-2.353a16.814 16.814 0 001.87-.613l.99 2.033a.734.734 0 00.266.288c.112.069.24.105.37.104a.798.798 0 00.318-.072.724.724 0 00.397-.71.74.74 0 00-.079-.279L18.03 9.88c.591-.299 1.16-.643 1.703-1.028l1.017 1.47a.732.732 0 00.246.234.7.7 0 00.32.095.622.622 0 00.4-.148.79.79 0 00.162-1.025zm-10.851.66c-3.333.026-6.561-1.204-9.084-3.46a11.093 11.093 0 013.894-3.79 10.622 10.622 0 015.161-1.42c1.815.023 3.596.515 5.182 1.432a11.096 11.096 0 013.899 3.817c-2.52 2.236-5.735 3.451-9.052 3.42z" fill="#1D1D1F"/></svg>