<svg width="44" height="75" fill="none" xmlns="http://www.w3.org/2000/svg"><circle cx="22" cy="23" r="16" fill="#fff"/><path d="M27.73 58.138C34.232 48.517 43.9 32.663 43.9 23.45 43.9 9.568 34.07 0 21.95 0 9.827 0 0 9.568 0 23.448c0 9.214 9.667 25.067 16.17 34.689-6.117 1.208-10.263 4.31-10.263 8.156C5.907 71.257 12.805 75 21.95 75s16.042-3.743 16.042-8.707c0-3.845-4.147-6.948-10.262-8.155zM7.335 23.045c0-8.072 6.542-14.615 14.615-14.615 8.07 0 14.613 6.543 14.613 14.615 0 8.07-6.543 14.615-14.613 14.615-8.073 0-14.615-6.545-14.615-14.615zM21.95 71.022c-7.365 0-12.065-2.8-12.065-4.729 0-1.623 3.34-3.858 8.787-4.526a175.37 175.37 0 003.278 4.526s1.307-1.726 3.277-4.526c5.448.666 8.786 2.903 8.786 4.526 0 1.93-4.698 4.729-12.063 4.729z" fill="#1D1D1F"/><path d="M30.421 16.25c-.191.02-.465.058-.82.112a2.15 2.15 0 00-.964.4c-.253.185-.434.503-.543.954-.103.444-.154 1.1-.154 1.969v10.397h-1.825L17.05 18.834v6.829c0 .847.055 1.493.164 1.938.117.437.301.758.554.963.185.15.479.284.882.4.403.117.725.195.964.236v.8h-6.255v-.8c.267-.02.57-.068.912-.143.35-.082.64-.205.872-.37.267-.198.448-.495.543-.892.103-.403.154-1.076.154-2.02v-6.89a2.8 2.8 0 00-.164-.964 1.935 1.935 0 00-.492-.79 2.61 2.61 0 00-.83-.543 4.805 4.805 0 00-1.057-.318v-.82h5.476l7.957 9.844v-5.507c0-.875-.058-1.524-.174-1.948-.117-.43-.301-.749-.554-.954-.198-.157-.492-.29-.882-.4a8.489 8.489 0 00-.943-.235v-.8h6.244v.8z" fill="#1D1D1F"/></svg>