<svg width="22" height="15" fill="none" xmlns="http://www.w3.org/2000/svg"><path d="M.121 5.523l1.027 1.51a6.08 6.08 0 00-.636.638.661.661 0 00-.05.08.72.72 0 00-.052.784v.02a12.621 12.621 0 004.47 4.68A12.048 12.048 0 0011.001 15a12.047 12.047 0 006.124-1.758 12.62 12.62 0 004.476-4.678.755.755 0 00.067-.548.73.73 0 00-.321-.44h-.02a8.198 8.198 0 00-.52-.494l1.061-1.56a.76.76 0 00-.165-1.027.622.622 0 00-.4-.149.693.693 0 00-.336.088.722.722 0 00-.256.242l-1.04 1.496a13.3 13.3 0 00-1.703-1.054l.995-1.978a.723.723 0 00-.09-.818.728.728 0 00-.545-.243.725.725 0 00-.369.109.758.758 0 00-.267.283l-1.018 2.057a12.091 12.091 0 00-1.859-.633l.604-2.353a.779.779 0 00-.074-.557.733.733 0 00-.425-.349.711.711 0 00-.615.13.755.755 0 00-.26.384l-.635 2.452a12.525 12.525 0 00-1.726-.172V.735a.749.749 0 00-.207-.52.696.696 0 00-.502-.215.696.696 0 00-.5.215.749.749 0 00-.208.52V3.43c-.591.023-1.183.096-1.726.172L7.905 1.15a.758.758 0 00-.259-.384.715.715 0 00-.618-.13.72.72 0 00-.427.348.766.766 0 00-.069.558l.617 2.353c-.634.167-1.258.372-1.87.613l-.99-2.033a.734.734 0 00-.266-.288.699.699 0 00-.37-.104.695.695 0 00-.682.496.743.743 0 00.046.565L3.97 5.12c-.591.299-1.16.643-1.703 1.028L1.25 4.679a.732.732 0 00-.246-.234.702.702 0 00-.32-.095.622.622 0 00-.4.148.79.79 0 00-.162 1.025zm10.851-.66c3.333-.026 6.561 1.204 9.084 3.46a11.093 11.093 0 01-3.894 3.79 10.622 10.622 0 01-5.161 1.42 10.622 10.622 0 01-5.182-1.432A11.096 11.096 0 011.92 8.284c2.52-2.236 5.735-3.451 9.052-3.42z" fill="#1D1D1F"/><circle cx="11" cy="9" r="3" fill="#1D1D1F"/></svg>