<svg width="22" height="20" fill="none" xmlns="http://www.w3.org/2000/svg"><path d="M9.227 14.638a2.688 2.688 0 00-2.492 1.653 2.667 2.667 0 00.583 2.923 2.7 2.7 0 002.937.582 2.693 2.693 0 001.21-.987 2.671 2.671 0 00-.334-3.384 2.705 2.705 0 00-1.904-.787zm0 3.88a1.212 1.212 0 01-1.118-.74 1.195 1.195 0 01.262-1.31 1.21 1.21 0 012.061.851c0 .318-.128.622-.354.847a1.212 1.212 0 01-.851.352zm8.595-3.88a2.695 2.695 0 00-2.493 1.653 2.667 2.667 0 00.583 2.923 2.7 2.7 0 002.938.582 2.693 2.693 0 001.21-.987 2.671 2.671 0 00-.335-3.384 2.705 2.705 0 00-1.904-.787zm0 3.88a1.212 1.212 0 01-1.118-.74 1.196 1.196 0 01.261-1.31 1.21 1.21 0 012.062.851 1.2 1.2 0 01-.354.847 1.211 1.211 0 01-.851.352zm4.012-15.299a.743.743 0 00-.578-.274H8.151a.747.747 0 00-.72.563.736.736 0 00-.007.325l1.33 6.292a.74.74 0 00.875.551c.19-.04.356-.15.465-.31.108-.16.115-.545.115-.545L9.069 4.42H20.34l-1.533 7.251H7.231L4.96.594A.74.74 0 004.234 0H.743A.746.746 0 000 .74a.738.738 0 00.744.74h2.881l2.27 11.079a.74.74 0 00.728.592h12.788a.746.746 0 00.73-.587l1.844-8.731a.735.735 0 00-.151-.614z" fill="#1D1D1F"/></svg>