<svg width="17" height="20" fill="none" xmlns="http://www.w3.org/2000/svg"><path opacity=".99" d="M14 5.528a5.5 5.5 0 10-11-.056 5.5 5.5 0 0011 .056zm-9.308 0a3.808 3.808 0 117.615-.056 3.808 3.808 0 01-7.615.056z" fill="#1D1D1F"/><path d="M0 19.28a.658.658 0 00.051.279c.038.089.094.17.166.237.072.068.157.12.252.156A.783.783 0 00.766 20a.791.791 0 00.542-.211.699.699 0 00.224-.51c0-3.887 2.986-6.84 6.968-6.84 3.982 0 6.968 2.953 6.968 6.84 0 .192.08.375.224.51.144.135.339.21.542.21a.783.783 0 00.55-.203.694.694 0 00.165-.237.658.658 0 00.05-.28C17 14.649 13.274 11 8.5 11 3.727 11 0 14.648 0 19.28z" fill="#1D1D1F"/></svg>